<svg width="1784" height="937" viewBox="0 0 1784 937" fill="none" xmlns="http://www.w3.org/2000/svg">
<path d="M1784 936.769H1772V0H1784V936.769Z" fill="black"/>
<path d="M1248.03 294.707C1289.33 294.707 1321.28 305.594 1343.89 327.367C1366.93 348.705 1378.45 380.711 1378.45 423.387V550.76C1378.45 581.835 1380.69 608.422 1385.17 630.521C1385.71 633.17 1383.71 635.676 1381.01 635.676H1337.49C1335.51 635.676 1333.8 634.299 1333.42 632.356C1330.83 619.199 1329.54 604.194 1329.54 587.339H1328.24C1304.33 624.354 1266.07 642.861 1213.46 642.861C1179.55 642.861 1152.38 633.934 1131.95 616.08C1111.52 597.79 1101.3 574.275 1101.3 545.535C1101.3 516.794 1110.65 494.15 1129.34 477.602C1148.47 460.619 1181.08 448.426 1227.16 441.023C1258.45 435.941 1289.53 432.3 1320.41 430.101C1321.88 429.997 1323.02 428.772 1323.02 427.295V416.855C1323.02 390.291 1316.28 370.696 1302.8 358.067C1289.76 345.439 1271.5 339.124 1248.03 339.124C1224.55 339.124 1206.29 345.221 1193.25 357.414C1181.09 368.372 1174.23 382.924 1172.64 401.07C1172.45 403.317 1170.61 405.097 1168.35 405.097H1119.43C1117.02 405.097 1115.1 403.066 1115.3 400.659C1117.89 370.023 1130.18 344.939 1152.17 325.407C1175.21 304.94 1207.16 294.707 1248.03 294.707ZM1323.02 493.932V478.238C1323.02 475.782 1320.93 473.846 1318.48 474.045C1286.93 476.614 1259.53 479.977 1236.29 484.134C1208.47 488.489 1188.68 495.021 1176.95 503.73C1165.64 512.439 1159.99 525.068 1159.99 541.615C1159.99 559.034 1165.86 572.969 1177.6 583.42C1189.77 593.436 1206.51 598.443 1227.81 598.443C1256.94 598.443 1279.76 589.734 1296.28 572.316C1306.28 561.864 1313.24 551.196 1317.15 540.309C1321.06 528.987 1323.02 513.528 1323.02 493.932Z" fill="black"/>
<path d="M1069.85 303.852C1073.26 303.852 1075.25 307.713 1073.28 310.503L965.172 463.232L1083.66 629.008C1085.65 631.797 1083.66 635.676 1080.24 635.676H1021.54C1020.14 635.676 1018.83 634.975 1018.05 633.807L930.611 503.077H929.306L841.869 633.807C841.088 634.975 839.777 635.676 838.374 635.676H780.334C776.91 635.676 774.92 631.797 776.913 629.008L895.397 463.232L787.29 310.503C785.314 307.713 787.306 303.852 790.722 303.852H848.146C849.554 303.852 850.87 304.558 851.649 305.733L929.306 422.734H930.611L1008.92 305.72C1009.7 304.552 1011.01 303.852 1012.41 303.852H1069.85Z" fill="black"/>
<path d="M603.878 600.403C627.354 600.403 646.7 594.524 661.916 582.767C676.642 571.704 686.172 557.363 690.506 539.746C690.984 537.802 692.696 536.39 694.695 536.39H744.833C747.483 536.39 749.477 538.818 748.868 541.401C742.105 570.118 726.598 594.357 702.347 614.12C677.132 634.587 644.309 644.82 603.878 644.82C555.622 644.82 517.582 628.708 489.759 596.484C461.935 563.824 448.023 520.06 448.023 465.191C448.023 415.113 461.718 374.179 489.106 342.39C516.93 310.601 554.535 294.707 601.922 294.707C638.875 294.707 669.959 304.94 695.174 325.407C720.823 345.874 737.995 374.179 746.69 410.323C750.829 427.321 752.998 449.648 753.196 477.303C753.213 479.63 751.328 481.521 749.004 481.521H507.584C506.395 481.521 505.441 482.515 505.491 483.705C507.073 521.815 516.61 550.698 534.102 570.356C552.361 590.387 575.62 600.403 603.878 600.403ZM601.922 339.124C574.968 339.124 553.013 347.834 536.058 365.252C519.663 381.675 509.772 404.817 506.385 434.677C506.198 436.326 507.496 437.757 509.152 437.757H693.391C695.046 437.757 696.343 436.329 696.159 434.681C692.777 404.391 682.884 381.03 666.481 364.599C649.526 347.616 628.006 339.124 601.922 339.124Z" fill="black"/>
<path fill-rule="evenodd" clip-rule="evenodd" d="M0 698.892C0 701.231 1.88926 703.127 4.21978 703.127H389.626C391.957 703.127 393.846 701.231 393.846 698.892V678.764C393.846 676.799 393.166 674.894 391.922 673.375L221.889 465.817C220.608 464.254 220.608 462 221.889 460.437L391.922 252.879C393.166 251.36 393.846 249.455 393.846 247.49V227.362C393.846 225.023 391.957 223.127 389.626 223.127H4.21978C1.88926 223.127 0 225.023 0 227.362V698.892ZM199.219 493.716C198.088 492.335 195.98 492.343 194.859 493.732L58.1474 663.233C56.6585 665.079 57.9675 667.833 60.334 667.833H335.901C338.278 667.833 339.584 665.059 338.074 663.216L199.219 493.716ZM38.9146 630.984C37.6635 632.536 35.1648 631.648 35.1648 629.652V483.598C35.1648 482.038 36.4243 480.774 37.978 480.774H154.171C156.538 480.774 157.847 483.528 156.358 485.374L38.9146 630.984ZM154.171 445.48C156.538 445.48 157.847 442.726 156.358 440.88L38.9146 295.269C37.6635 293.718 35.1648 294.606 35.1648 296.602V442.656C35.1648 444.216 36.4243 445.48 37.978 445.48H154.171ZM58.1474 263.021C56.6584 261.175 57.9675 258.421 60.334 258.421H335.901C338.278 258.421 339.584 261.195 338.074 263.038L199.219 432.538C198.088 433.919 195.979 433.911 194.859 432.522L58.1474 263.021Z" fill="#2043EC"/>
</svg>
