<svg width="1784" height="937" viewBox="0 0 1784 937" fill="none" xmlns="http://www.w3.org/2000/svg">
<path d="M1784 936.769H1772V0H1784V936.769Z" fill="black"/>
<path d="M1784 936.769H1772V0H1784V936.769Z" fill="white"/>
<path d="M1248.03 294.703C1289.33 294.703 1321.28 305.59 1343.89 327.363C1366.93 348.701 1378.45 380.707 1378.45 423.383V550.756C1378.45 581.831 1380.69 608.418 1385.17 630.517C1385.71 633.166 1383.71 635.672 1381.01 635.672H1337.49C1335.51 635.672 1333.8 634.295 1333.42 632.352C1330.83 619.195 1329.54 604.19 1329.54 587.335H1328.24C1304.33 624.35 1266.07 642.857 1213.46 642.857C1179.55 642.857 1152.38 633.93 1131.95 616.076C1111.52 597.786 1101.3 574.271 1101.3 545.531C1101.3 516.79 1110.65 494.146 1129.34 477.598C1148.47 460.615 1181.08 448.422 1227.16 441.019C1258.45 435.937 1289.53 432.296 1320.41 430.098C1321.88 429.993 1323.02 428.768 1323.02 427.291V416.851C1323.02 390.288 1316.28 370.692 1302.8 358.063C1289.76 345.435 1271.5 339.12 1248.03 339.12C1224.55 339.12 1206.29 345.217 1193.25 357.41C1181.09 368.368 1174.23 382.92 1172.64 401.066C1172.45 403.313 1170.61 405.093 1168.35 405.093H1119.43C1117.02 405.093 1115.1 403.062 1115.3 400.655C1117.89 370.019 1130.18 344.935 1152.17 325.403C1175.21 304.937 1207.16 294.703 1248.03 294.703ZM1323.02 493.928V478.234C1323.02 475.778 1320.93 473.842 1318.48 474.041C1286.93 476.61 1259.53 479.973 1236.29 484.13C1208.47 488.485 1188.68 495.017 1176.95 503.726C1165.64 512.435 1159.99 525.064 1159.99 541.611C1159.99 559.03 1165.86 572.965 1177.6 583.416C1189.77 593.432 1206.51 598.44 1227.81 598.44C1256.94 598.44 1279.76 589.73 1296.28 572.312C1306.28 561.86 1313.24 551.192 1317.15 540.305C1321.06 528.983 1323.02 513.524 1323.02 493.928Z" fill="white"/>
<path d="M1069.85 303.848C1073.26 303.848 1075.25 307.709 1073.28 310.499L965.172 463.228L1083.66 629.005C1085.65 631.793 1083.66 635.672 1080.24 635.672H1021.54C1020.14 635.672 1018.83 634.971 1018.05 633.803L930.611 503.073H929.306L841.869 633.803C841.088 634.971 839.777 635.672 838.374 635.672H780.334C776.91 635.672 774.92 631.793 776.913 629.005L895.397 463.228L787.29 310.5C785.314 307.709 787.306 303.848 790.722 303.848H848.146C849.554 303.848 850.87 304.554 851.649 305.729L929.306 422.73H930.611L1008.92 305.716C1009.7 304.548 1011.01 303.848 1012.41 303.848H1069.85Z" fill="white"/>
<path d="M603.878 600.399C627.354 600.399 646.7 594.52 661.916 582.763C676.642 571.7 686.172 557.359 690.506 539.742C690.984 537.798 692.696 536.386 694.695 536.386H744.833C747.483 536.386 749.477 538.814 748.868 541.397C742.105 570.114 726.598 594.353 702.347 614.116C677.132 634.583 644.309 644.817 603.878 644.817C555.622 644.817 517.582 628.704 489.759 596.48C461.935 563.82 448.023 520.056 448.023 465.187C448.023 415.109 461.718 374.175 489.106 342.386C516.93 310.598 554.535 294.703 601.922 294.703C638.875 294.703 669.959 304.937 695.174 325.403C720.823 345.87 737.995 374.175 746.69 410.319C750.829 427.317 752.998 449.644 753.196 477.299C753.213 479.626 751.328 481.517 749.004 481.517H507.584C506.395 481.517 505.441 482.511 505.491 483.701C507.073 521.811 516.61 550.695 534.102 570.352C552.361 590.384 575.62 600.399 603.878 600.399ZM601.922 339.121C574.968 339.121 553.013 347.83 536.058 365.248C519.663 381.671 509.772 404.813 506.385 434.673C506.198 436.322 507.496 437.753 509.152 437.753H693.391C695.046 437.753 696.343 436.325 696.159 434.677C692.777 404.387 682.884 381.026 666.481 364.595C649.526 347.612 628.006 339.121 601.922 339.121Z" fill="white"/>
<path fill-rule="evenodd" clip-rule="evenodd" d="M0 698.89C0 701.229 1.88926 703.125 4.21978 703.125H389.626C391.957 703.125 393.846 701.229 393.846 698.89V678.762C393.846 676.797 393.166 674.892 391.922 673.373L221.889 465.815C220.608 464.252 220.608 461.998 221.889 460.435L391.922 252.877C393.166 251.358 393.846 249.453 393.846 247.488V227.36C393.846 225.021 391.957 223.125 389.626 223.125H4.21978C1.88926 223.125 0 225.021 0 227.36V698.89ZM199.219 493.714C198.088 492.333 195.98 492.341 194.859 493.73L58.1474 663.231C56.6585 665.077 57.9675 667.831 60.334 667.831H335.901C338.278 667.831 339.584 665.057 338.074 663.214L199.219 493.714ZM38.9146 630.983C37.6635 632.534 35.1648 631.646 35.1648 629.65V483.596C35.1648 482.036 36.4243 480.772 37.978 480.772H154.171C156.538 480.772 157.847 483.526 156.358 485.372L38.9146 630.983ZM154.171 445.478C156.538 445.478 157.847 442.724 156.358 440.878L38.9146 295.267C37.6635 293.716 35.1648 294.604 35.1648 296.6V442.654C35.1648 444.214 36.4243 445.478 37.978 445.478H154.171ZM58.1474 263.019C56.6584 261.173 57.9675 258.419 60.334 258.419H335.901C338.278 258.419 339.584 261.194 338.074 263.036L199.219 432.536C198.088 433.917 195.979 433.909 194.859 432.52L58.1474 263.019Z" fill="white"/>
</svg>
