<svg width="1389" height="480" viewBox="0 0 1389 480" fill="none" xmlns="http://www.w3.org/2000/svg">
<path fill-rule="evenodd" clip-rule="evenodd" d="M0 475.765C0 478.104 1.89525 480 4.23314 480H390.86C393.198 480 395.093 478.104 395.093 475.765V455.637C395.093 453.672 394.411 451.767 393.163 450.248L222.592 242.69C221.307 241.127 221.307 238.873 222.592 237.31L393.163 29.7517C394.411 28.2333 395.093 26.3285 395.093 24.3627V4.23529C395.093 1.89621 393.198 0 390.86 0H4.23314C1.89524 0 0 1.8962 0 4.23529V475.765ZM199.85 270.589C198.715 269.208 196.6 269.216 195.476 270.605L58.3316 440.106C56.8379 441.952 58.1511 444.706 60.5251 444.706H336.965C339.349 444.706 340.659 441.931 339.145 440.089L199.85 270.589ZM39.0378 407.858C37.7828 409.409 35.2762 408.521 35.2762 406.525V260.471C35.2762 258.911 36.5397 257.647 38.0983 257.647H154.659C157.033 257.647 158.347 260.401 156.853 262.247L39.0378 407.858ZM154.659 222.353C157.033 222.353 158.347 219.599 156.853 217.753L39.0378 72.1424C37.7828 70.5913 35.2762 71.4792 35.2762 73.4749V219.529C35.2762 221.089 36.5397 222.353 38.0983 222.353H154.659ZM58.3316 39.8942C56.8379 38.0481 58.1511 35.2941 60.5251 35.2941H336.965C339.349 35.2941 340.659 38.0685 339.145 39.9109L199.85 209.411C198.715 210.792 196.6 210.784 195.476 209.395L58.3316 39.8942Z" fill="white"/>
<path d="M1250.92 64.0658C1292.48 64.0658 1324.63 75.007 1347.37 96.8894C1370.56 118.334 1382.15 150.501 1382.15 193.391V321.402C1382.15 352.633 1384.4 379.354 1388.91 401.563C1389.45 404.225 1387.44 406.743 1384.72 406.743H1340.94C1338.95 406.743 1337.22 405.36 1336.84 403.407C1334.24 390.185 1332.94 375.104 1332.94 358.165H1331.63C1307.57 395.365 1269.07 413.965 1216.15 413.965C1182.03 413.965 1154.69 404.993 1134.13 387.049C1113.57 368.668 1103.29 345.035 1103.29 316.151C1103.29 287.266 1112.7 264.508 1131.5 247.878C1150.75 230.809 1183.56 218.555 1229.93 211.115C1261.41 206.008 1292.68 202.349 1323.75 200.139C1325.23 200.034 1326.38 198.803 1326.38 197.318V186.826C1326.38 160.129 1319.6 140.435 1306.04 127.743C1292.91 115.052 1274.54 108.706 1250.92 108.706C1227.3 108.706 1208.93 114.833 1195.81 127.087C1183.58 138.1 1176.66 152.725 1175.07 170.961C1174.88 173.22 1173.02 175.009 1170.76 175.009H1121.53C1119.11 175.009 1117.17 172.968 1117.38 170.549C1119.98 139.759 1132.35 114.55 1154.47 94.9199C1177.65 74.3505 1209.8 64.0658 1250.92 64.0658ZM1326.38 264.289V248.517C1326.38 246.048 1324.27 244.102 1321.81 244.302C1290.06 246.885 1262.49 250.265 1239.11 254.442C1211.12 258.819 1191.21 265.383 1179.4 274.136C1168.03 282.889 1162.34 295.581 1162.34 312.212C1162.34 329.718 1168.25 343.722 1180.06 354.226C1192.31 364.292 1209.15 369.325 1230.58 369.325C1259.89 369.325 1282.85 360.572 1299.48 343.066C1309.54 332.562 1316.54 321.84 1320.47 310.899C1324.41 299.52 1326.38 283.984 1326.38 264.289Z" fill="white"/>
<path d="M1071.64 73.2564C1075.08 73.2564 1077.08 77.1367 1075.1 79.9414L966.321 233.435L1085.54 400.043C1087.54 402.846 1085.54 406.744 1082.09 406.744H1023.04C1021.63 406.744 1020.31 406.039 1019.52 404.866L931.546 273.48H930.234L842.257 404.866C841.471 406.039 840.152 406.744 838.74 406.744H780.341C776.896 406.744 774.894 402.846 776.899 400.043L896.115 233.435L787.34 79.9414C785.353 77.1367 787.357 73.2564 790.794 73.2564H848.572C849.99 73.2564 851.313 73.9661 852.097 75.1469L930.234 192.734H931.546L1010.34 75.1335C1011.12 73.9604 1012.44 73.2564 1013.85 73.2564H1071.64Z" fill="white"/>
<path d="M602.796 371.294C626.417 371.294 645.883 365.386 661.192 353.569C676.01 342.451 685.599 328.038 689.959 310.333C690.44 308.379 692.163 306.96 694.174 306.96H744.622C747.288 306.96 749.294 309.4 748.682 311.997C741.877 340.857 726.274 365.218 701.873 385.08C676.502 405.649 643.477 415.934 602.796 415.934C554.242 415.934 515.967 399.741 487.972 367.355C459.977 334.532 445.979 290.548 445.979 235.405C445.979 185.075 459.758 143.936 487.316 111.988C515.311 80.04 553.149 64.0658 600.828 64.0658C638.009 64.0658 669.285 74.3505 694.655 94.92C720.463 115.489 737.742 143.936 746.49 180.261C750.655 197.344 752.837 219.783 753.036 247.577C753.053 249.916 751.156 251.816 748.818 251.816H505.908C504.711 251.816 503.752 252.815 503.802 254.011C505.394 292.312 514.99 321.34 532.59 341.096C550.961 361.228 574.364 371.294 602.796 371.294ZM600.828 108.706C573.708 108.706 551.618 117.459 534.558 134.965C518.061 151.47 508.109 174.727 504.702 204.738C504.513 206.394 505.819 207.833 507.485 207.833H692.862C694.527 207.833 695.832 206.397 695.647 204.742C692.244 174.3 682.291 150.822 665.785 134.308C648.726 117.24 627.073 108.706 600.828 108.706Z" fill="white"/>
</svg>
